<svg width="159" height="129" viewBox="0 0 159 129" fill="none" xmlns="http://www.w3.org/2000/svg">
<path d="M35.4553 41.024L39.7483 59.309L35.4553 77.5145L51.4348 87.3725L61.2133 103.352L79.4983 99.059L97.7833 103.352L107.562 87.3725L123.541 77.5145L119.248 59.309L123.541 41.024L107.641 31.166L97.7833 15.1865L79.4983 19.559L61.2928 15.266L51.3553 31.166L35.4553 41.024ZM79.5778 91.427C71.1439 91.427 63.0555 88.0767 57.0918 82.113C51.1282 76.1494 47.7778 68.0609 47.7778 59.627C47.7778 51.1931 51.1282 43.1047 57.0918 37.141C63.0555 31.1774 71.1439 27.827 79.5778 27.827C97.0678 27.827 111.298 42.0575 111.298 59.5475C111.298 77.1965 97.0678 91.427 79.5778 91.427ZM79.4188 83.477C66.2218 83.477 55.6483 72.824 55.6483 59.627C55.6483 46.5095 66.2218 35.777 79.4188 35.777C92.6158 35.777 103.348 46.5095 103.348 59.627C103.348 72.824 92.6158 83.477 79.4188 83.477ZM109.947 92.222L99.7708 110.03L83.2348 106.294L103.348 152.642L114.478 135.152H134.353L109.947 92.222ZM48.7318 92.7785L58.6693 110.666L75.6028 106.612L55.6483 152.642L44.5183 135.152H24.6433L48.7318 92.7785Z" fill="#EAE8E8"/>
</svg>
